<svg xmlns="http://www.w3.org/2000/svg" xmlns:xlink="http://www.w3.org/1999/xlink" viewBox="0 0 348.03 219.71"><defs><style>.cls-1,.cls-5{fill:none;}.cls-2{clip-path:url(#clip-path);}.cls-3{fill:#695837;}.cls-4{fill:#1d1d1b;}.cls-5{stroke:#1d1d1b;stroke-miterlimit:10;}.cls-6{fill:#b28f32;}.cls-7{fill:#fff;}.cls-8{fill:#881823;}</style><clipPath id="clip-path" transform="translate(0 0)"><rect class="cls-1" width="348.03" height="219.71"/></clipPath></defs><title>bidali_logo</title><g id="Laag_2" data-name="Laag 2"><g id="Laag_1-2" data-name="Laag 1"><g id="bidali_logo"><g class="cls-2"><g class="cls-2"><path class="cls-3" d="M70.83,215.95c6.33,5,13.52-.85,28.54.34,10.92.87,11.67,4.34,20.17,3.2,5.77-.77,6-2.44,16.74-5.73,9.81-3,10.79-2,17.87-4.62,8.26-3.1,13.19-5,16.15-9.64,4-6.39,2.08-14.32-.76-25.18-2.73-10.44-4.46-10.43-8-21.2-6.33-19.25-2.63-24.81-9.78-34.06-5.51-7.13-8.83-5.29-11.84-11.66-4.52-9.57,1.72-16.37-2.44-25.72-2.13-4.78-4.26-4.12-13.53-12.21-17.52-15.29-18.8-25.41-29.31-26.63-5-.58-8.75,1.25-11.76-1.59-3.26-3.07-.93-7.13-3.45-11.17-3.55-5.69-13.13-5.56-24.67-5.4-7.53.1-15.92.21-26.27,4.12A53.72,53.72,0,0,0,7.35,42.4C4,46,.91,49.32.17,54.21c-1.3,8.53,5.42,16,7.42,18.41C31,100.3,61.93,192.32,66.29,208.15c.47,1.71,1.4,5.3,4.54,7.8" transform="translate(0 0)"/><path class="cls-4" d="M55,129.33c1.37-.39,2.94,8.34,10.2,16.71,3.37,3.89,7.13,6.29,14.64,11.08,8.89,5.67,14.52,9.27,23,11.57,6.68,1.81,12.06,3.26,18.48,1.53,6.15-1.65,7.81-4.76,15.61-8l1.21-.48a51.53,51.53,0,0,1,13.31-3c10.22-1.42,17.54-15.92,18.33-17.49,2.5-4.95,3.13-9,4.35-16.82,1.48-9.51.09-9.51,1.53-19.6,1.32-9.31,2.11-6.49,4.87-20.74.83-4.27,1.59-8.81,3.29-9,1-.09,1.94,1.25,2.41,2.28,1.63,3.64-1.22,7.71-3.07,11.6-1.26,2.67-2,8.46-3.42,20-1.88,15.09-.37,13.71-1.95,20.23a63.42,63.42,0,0,1-9.31,20.5c-5,7.7-8.24,9.73-9.39,10.39a32.94,32.94,0,0,1-9.66,3.44c-4.53.75-6.26-.1-8.62,1.54-2.71,1.88-1.82,4-4.58,5.93-1.93,1.37-3.51,1.19-8.41,1.75-5.68.65-6.14,1.2-9.46,1.55-7.17.74-13.07-1-17.71-2.39s-9.3-3.93-18.39-8.91C69.24,155.93,66,153.21,63.7,151c-5.09-4.83-7.05-8.52-8.09-11.73-1.47-4.54-1.6-9.69-.57-10" transform="translate(0 0)"/><path class="cls-5" d="M55,129.33c1.37-.39,2.94,8.34,10.2,16.71,3.37,3.89,7.13,6.29,14.64,11.08,8.89,5.67,14.52,9.27,23,11.57,6.68,1.81,12.06,3.26,18.48,1.53,6.15-1.65,7.81-4.76,15.61-8l1.21-.48a51.53,51.53,0,0,1,13.31-3c10.22-1.42,17.54-15.92,18.33-17.49,2.5-4.95,3.13-9,4.35-16.82,1.48-9.51.09-9.51,1.53-19.6,1.32-9.31,2.11-6.49,4.87-20.74.83-4.27,1.59-8.81,3.29-9,1-.09,1.94,1.25,2.41,2.28,1.63,3.64-1.22,7.71-3.07,11.6-1.26,2.67-2,8.46-3.42,20-1.88,15.09-.37,13.71-1.95,20.23a63.42,63.42,0,0,1-9.31,20.5c-5,7.7-8.24,9.73-9.39,10.39a32.94,32.94,0,0,1-9.66,3.44c-4.53.75-6.26-.1-8.62,1.54-2.71,1.88-1.82,4-4.58,5.93-1.93,1.37-3.51,1.19-8.41,1.75-5.68.65-6.14,1.2-9.46,1.55-7.17.74-13.07-1-17.71-2.39s-9.3-3.93-18.39-8.91C69.24,155.93,66,153.21,63.7,151c-5.09-4.83-7.05-8.52-8.09-11.73C54.13,134.77,54,129.62,55,129.33Z" transform="translate(0 0)"/><path class="cls-6" d="M132.84,80.38c.34,1.14-1.45,2-6.06,6.57a46.37,46.37,0,0,0-6.68,7.63c-2.25,3.4-4.1,6.19-3.3,8.87s3,2.17,7.2,5.84c3.56,3.13,2.86,4.25,7.65,9.2a70.2,70.2,0,0,0,5.73,5.22c3.48,2.93,5.22,4.39,7.41,5.63,2.88,1.61,3.7,1.46,4.44,2.7,1.86,3.14-1.17,7.86-1.41,8.22-.79,1.2-2.21,3.36-4.6,3.83-3.11.61-4.22-2.33-7-1.84-2,.35-2.3,2-7.31,7.85-2.84,3.31-3.41,3.56-4,3.61-3.18.3-6.54-5.52-8.08-10-2.26-6.62.21-8-1.17-14.94-1.9-9.55-8.38-15.82-11.73-19.07-3-2.88-4.46-4.32-6.78-5-5.74-1.69-9,2.51-15.36.75-4.1-1.13-4.67-3.39-7.18-2.89-2.9.57-3.43,3.85-7.29,9.53-3.06,4.49-8.31,10.62-10,9.76-1.3-.65-.46-5.23.57-8.22,2.32-6.78,7.38-10.68,9.8-12.5,2.11-1.59,11.47-8.62,23.94-7.77,9,.62,11.79,4.82,17.08,3,4.81-1.64,3-8.66,10-14.4A13.89,13.89,0,0,1,124,79.19c3.67-1,8.35-.5,8.85,1.19" transform="translate(0 0)"/><path class="cls-7" d="M96.29,118.78c.47,3.06-2.66,5.71-5.41,8a20.45,20.45,0,0,1-12,4.94c-2.52.12-5.35.26-6.54-1.42-2.12-3,2.72-9.33,3.5-10.35,2.06-2.69,5.17-6.75,10.26-7,4.27-.23,9.59,2.2,10.15,5.81" transform="translate(0 0)"/><path class="cls-5" d="M96.29,118.78c.47,3.06-2.66,5.71-5.41,8a20.45,20.45,0,0,1-12,4.94c-2.52.12-5.35.26-6.54-1.42-2.12-3,2.72-9.33,3.5-10.35,2.06-2.69,5.17-6.75,10.26-7C90.41,112.73,95.73,115.16,96.29,118.78Z" transform="translate(0 0)"/><path class="cls-4" d="M84.1,121.4c1.31.7,2.51,2.35,2.13,3.77-.31,1.17-1.54,1.68-3.14,2.34-1.76.73-4.87,2-6.1.68-1.05-1.15-.32-3.76,1-5.27s4.05-2.62,6.09-1.52" transform="translate(0 0)"/><path class="cls-5" d="M84.1,121.4c1.31.7,2.51,2.35,2.13,3.77-.31,1.17-1.54,1.68-3.14,2.34-1.76.73-4.87,2-6.1.68-1.05-1.15-.32-3.76,1-5.27S82.06,120.3,84.1,121.4Z" transform="translate(0 0)"/><path class="cls-8" d="M126.07,184.44c-.5-1.25,4-4.47,8-6.38,1-.49,1.07-.45,9-3.23,5.45-1.9,6-2.12,6.93-2.79,3.07-2.21,3.16-4.17,5.65-4.89s5.57.23,5.91,1.64c.29,1.19-1.54,2.34-10,8.08-7.48,5-8.26,5.65-10.48,6.4-3.3,1.12-6,1.3-9.88,1.55-3.11.21-4.79.3-5.06-.38" transform="translate(0 0)"/><path class="cls-5" d="M126.07,184.44c-.5-1.25,4-4.47,8-6.38,1-.49,1.07-.45,9-3.23,5.45-1.9,6-2.12,6.93-2.79,3.07-2.21,3.16-4.17,5.65-4.89s5.57.23,5.91,1.64c.29,1.19-1.54,2.34-10,8.08-7.48,5-8.26,5.65-10.48,6.4-3.3,1.12-6,1.3-9.88,1.55C128,185,126.35,185.13,126.07,184.44Z" transform="translate(0 0)"/><path class="cls-3" d="M277.2,3.76c-6.33-5-13.52.86-28.54-.33C237.74,2.56,237-.91,228.48.23c-5.77.77-6,2.44-16.74,5.73-9.81,3-10.79,2-17.87,4.62-8.26,3.1-13.19,5-16.15,9.64-4,6.39-2.08,14.32.76,25.18,2.73,10.44,4.46,10.43,8,21.2,6.33,19.25,2.63,24.81,9.78,34.06,5.51,7.13,8.83,5.29,11.84,11.66,4.52,9.57-1.72,16.37,2.44,25.72,2.13,4.78,4.26,4.12,13.53,12.21,17.52,15.29,18.8,25.41,29.31,26.63,5,.58,8.75-1.25,11.76,1.59,3.27,3.07.93,7.13,3.45,11.17,3.55,5.69,13.13,5.56,24.67,5.4,7.53-.1,15.92-.21,26.27-4.12a53.72,53.72,0,0,0,21.16-13.6c3.35-3.6,6.44-6.92,7.18-11.81,1.3-8.53-5.42-16-7.42-18.41C317,119.41,286.1,27.38,281.74,11.56c-.47-1.71-1.4-5.3-4.54-7.8" transform="translate(0 0)"/><path class="cls-4" d="M293,90.38c-1.37.39-2.94-8.34-10.2-16.71-3.37-3.89-7.13-6.29-14.64-11.08-8.89-5.67-14.52-9.27-23-11.57-6.68-1.81-12.06-3.26-18.48-1.53-6.15,1.65-7.81,4.76-15.61,8l-1.21.48a51.52,51.52,0,0,1-13.31,3C186.28,62.34,179,76.84,178.17,78.41c-2.49,4.95-3.13,9-4.35,16.82-1.48,9.51-.09,9.51-1.52,19.6-1.32,9.31-2.11,6.49-4.87,20.74-.83,4.27-1.59,8.81-3.29,9-1,.09-1.94-1.25-2.41-2.28-1.63-3.64,1.22-7.71,3.07-11.6,1.26-2.67,2-8.46,3.42-20,1.88-15.08.37-13.71,1.95-20.23a63.42,63.42,0,0,1,9.31-20.5c5-7.7,8.24-9.73,9.39-10.39a32.93,32.93,0,0,1,9.66-3.44c4.53-.75,6.26.1,8.62-1.54,2.71-1.88,1.82-4,4.58-5.93,1.93-1.37,3.51-1.19,8.41-1.75,5.68-.65,6.14-1.2,9.46-1.55,7.17-.74,13.07,1,17.71,2.39s9.3,3.93,18.39,8.91c13.08,7.17,16.34,9.9,18.62,12.07,5.09,4.83,7.05,8.52,8.09,11.73,1.47,4.54,1.6,9.69.57,10" transform="translate(0 0)"/><path class="cls-5" d="M293,90.38c-1.37.39-2.94-8.34-10.2-16.71-3.37-3.89-7.13-6.29-14.64-11.08-8.89-5.67-14.52-9.27-23-11.57-6.68-1.81-12.06-3.26-18.48-1.53-6.15,1.65-7.81,4.76-15.61,8l-1.21.48a51.52,51.52,0,0,1-13.31,3C186.28,62.34,179,76.84,178.17,78.41c-2.49,4.95-3.13,9-4.35,16.82-1.48,9.51-.09,9.51-1.52,19.6-1.32,9.31-2.11,6.49-4.87,20.74-.83,4.27-1.59,8.81-3.29,9-1,.09-1.94-1.25-2.41-2.28-1.63-3.64,1.22-7.71,3.07-11.6,1.26-2.67,2-8.46,3.42-20,1.88-15.08.37-13.71,1.95-20.23a63.42,63.42,0,0,1,9.31-20.5c5-7.7,8.24-9.73,9.39-10.39a32.93,32.93,0,0,1,9.66-3.44c4.53-.75,6.26.1,8.62-1.54,2.71-1.88,1.82-4,4.58-5.93,1.93-1.37,3.51-1.19,8.41-1.75,5.68-.65,6.14-1.2,9.46-1.55,7.17-.74,13.07,1,17.71,2.39s9.3,3.93,18.39,8.91c13.08,7.17,16.34,9.9,18.62,12.07,5.09,4.83,7.05,8.52,8.09,11.73C293.89,84.94,294,90.09,293,90.38Z" transform="translate(0 0)"/><path class="cls-6" d="M215.19,139.33c-.34-1.14,1.45-2,6.05-6.57a46.41,46.41,0,0,0,6.68-7.63c2.25-3.4,4.1-6.19,3.3-8.87s-3-2.17-7.21-5.84c-3.56-3.13-2.86-4.25-7.65-9.2A70.08,70.08,0,0,0,210.64,96c-3.48-2.93-5.22-4.39-7.41-5.63-2.88-1.61-3.7-1.46-4.44-2.7-1.86-3.13,1.17-7.86,1.41-8.22.79-1.2,2.21-3.35,4.6-3.83,3.11-.61,4.22,2.33,7,1.84,2-.35,2.3-2,7.31-7.85,2.84-3.31,3.41-3.56,4-3.61,3.18-.3,6.54,5.52,8.08,10,2.26,6.63-.21,8,1.17,14.94,1.9,9.55,8.38,15.82,11.73,19.07,3,2.88,4.46,4.32,6.78,5,5.74,1.69,9-2.51,15.36-.75,4.1,1.13,4.67,3.39,7.18,2.89,2.9-.58,3.43-3.85,7.29-9.53,3.06-4.49,8.31-10.62,10-9.76,1.3.65.45,5.23-.57,8.22-2.32,6.78-7.38,10.68-9.8,12.5-2.11,1.59-11.47,8.62-23.94,7.77-9-.62-11.79-4.82-17.08-3-4.81,1.64-3,8.66-10,14.4a13.88,13.88,0,0,1-5.24,2.78c-3.67,1-8.35.5-8.85-1.19" transform="translate(0 0)"/><path class="cls-7" d="M251.74,100.93c-.48-3.06,2.65-5.71,5.41-8a20.44,20.44,0,0,1,12-4.94c2.52-.12,5.35-.26,6.54,1.42,2.12,3-2.72,9.33-3.5,10.35-2.06,2.69-5.17,6.75-10.26,7-4.27.23-9.59-2.2-10.15-5.82" transform="translate(0 0)"/><path class="cls-5" d="M251.74,100.93c-.48-3.06,2.65-5.71,5.41-8a20.44,20.44,0,0,1,12-4.94c2.52-.12,5.35-.26,6.54,1.42,2.12,3-2.72,9.33-3.5,10.35-2.06,2.69-5.17,6.75-10.26,7C257.62,107,252.3,104.54,251.74,100.93Z" transform="translate(0 0)"/><path class="cls-4" d="M263.93,98.31c-1.31-.7-2.52-2.35-2.14-3.77.31-1.17,1.54-1.68,3.14-2.34,1.76-.73,4.87-2,6.1-.68,1.05,1.15.32,3.76-1,5.27s-4.05,2.62-6.09,1.52" transform="translate(0 0)"/><path class="cls-5" d="M263.93,98.31c-1.31-.7-2.52-2.35-2.14-3.77.31-1.17,1.54-1.68,3.14-2.34,1.76-.73,4.87-2,6.1-.68,1.05,1.15.32,3.76-1,5.27S266,99.4,263.93,98.31Z" transform="translate(0 0)"/><path class="cls-8" d="M222,35.26c.5,1.25-4,4.47-8,6.38-1,.49-1.07.45-9,3.23-5.45,1.9-6,2.12-6.93,2.79-3.07,2.21-3.16,4.17-5.65,4.89s-5.56-.23-5.91-1.64c-.29-1.19,1.54-2.34,10-8.08,7.48-5,8.26-5.65,10.48-6.4,3.3-1.12,6-1.3,9.88-1.55,3.11-.21,4.79-.3,5.06.38" transform="translate(0 0)"/><path class="cls-5" d="M222,35.26c.5,1.25-4,4.47-8,6.38-1,.49-1.07.45-9,3.23-5.45,1.9-6,2.12-6.93,2.79-3.07,2.21-3.16,4.17-5.65,4.89s-5.56-.23-5.91-1.64c-.29-1.19,1.54-2.34,10-8.08,7.48-5,8.26-5.65,10.48-6.4,3.3-1.12,6-1.3,9.88-1.55C220,34.68,221.68,34.58,222,35.26Z" transform="translate(0 0)"/></g></g></g></g></g></svg>